<mxfile host="app.diagrams.net" agent="Mozilla/5.0 (X11; Linux x86_64; rv:141.0) Gecko/20100101 Firefox/141.0" version="28.1.0">
  <diagram name="Page-1" id="pxLEEoXaNfWB3kzmObCi">
    <mxGraphModel dx="1416" dy="858" grid="1" gridSize="10" guides="1" tooltips="1" connect="1" arrows="1" fold="1" page="1" pageScale="1" pageWidth="1169" pageHeight="827" math="0" shadow="0">
      <root>
        <mxCell id="0" />
        <mxCell id="1" parent="0" />
        <mxCell id="3AVylNJSje92Rf9lsjq2-1" value="" style="rounded=1;whiteSpace=wrap;html=1;align=left;" vertex="1" parent="1">
          <mxGeometry x="520" y="145" width="420" height="385" as="geometry" />
        </mxCell>
        <mxCell id="3AVylNJSje92Rf9lsjq2-2" value="&lt;b&gt;SUPABASE&lt;/b&gt;" style="rounded=0;whiteSpace=wrap;html=1;strokeColor=none;fillColor=none;" vertex="1" parent="1">
          <mxGeometry x="535" y="160" width="100" height="40" as="geometry" />
        </mxCell>
        <mxCell id="3AVylNJSje92Rf9lsjq2-3" value="PostgreSQL" style="strokeWidth=2;html=1;shape=mxgraph.flowchart.database;whiteSpace=wrap;" vertex="1" parent="1">
          <mxGeometry x="740" y="200" width="100" height="60" as="geometry" />
        </mxCell>
        <mxCell id="3AVylNJSje92Rf9lsjq2-11" style="edgeStyle=orthogonalEdgeStyle;rounded=0;orthogonalLoop=1;jettySize=auto;html=1;exitX=0.5;exitY=1;exitDx=0;exitDy=0;entryX=0.5;entryY=0;entryDx=0;entryDy=0;" edge="1" parent="1" source="3AVylNJSje92Rf9lsjq2-4" target="3AVylNJSje92Rf9lsjq2-5">
          <mxGeometry relative="1" as="geometry" />
        </mxCell>
        <mxCell id="3AVylNJSje92Rf9lsjq2-17" style="edgeStyle=orthogonalEdgeStyle;rounded=0;orthogonalLoop=1;jettySize=auto;html=1;exitX=1;exitY=0.75;exitDx=0;exitDy=0;entryX=1;entryY=0.25;entryDx=0;entryDy=0;" edge="1" parent="1" source="3AVylNJSje92Rf9lsjq2-4" target="3AVylNJSje92Rf9lsjq2-12">
          <mxGeometry relative="1" as="geometry" />
        </mxCell>
        <mxCell id="3AVylNJSje92Rf9lsjq2-4" value="Edge Fonctions" style="whiteSpace=wrap;html=1;align=center;" vertex="1" parent="1">
          <mxGeometry x="740" y="315" width="100" height="40" as="geometry" />
        </mxCell>
        <mxCell id="3AVylNJSje92Rf9lsjq2-5" value="Storage" style="whiteSpace=wrap;html=1;align=center;" vertex="1" parent="1">
          <mxGeometry x="740" y="420" width="100" height="40" as="geometry" />
        </mxCell>
        <mxCell id="3AVylNJSje92Rf9lsjq2-15" style="edgeStyle=orthogonalEdgeStyle;rounded=0;orthogonalLoop=1;jettySize=auto;html=1;exitX=1;exitY=0.5;exitDx=0;exitDy=0;entryX=0;entryY=0.5;entryDx=0;entryDy=0;" edge="1" parent="1" source="3AVylNJSje92Rf9lsjq2-6" target="3AVylNJSje92Rf9lsjq2-14">
          <mxGeometry relative="1" as="geometry" />
        </mxCell>
        <mxCell id="3AVylNJSje92Rf9lsjq2-6" value="&lt;div&gt;&lt;b&gt;SDK&lt;/b&gt;&lt;/div&gt;&lt;div&gt;React Native&lt;/div&gt;" style="whiteSpace=wrap;html=1;align=center;" vertex="1" parent="1">
          <mxGeometry x="220" y="297.5" width="100" height="75" as="geometry" />
        </mxCell>
        <mxCell id="3AVylNJSje92Rf9lsjq2-10" style="edgeStyle=orthogonalEdgeStyle;rounded=0;orthogonalLoop=1;jettySize=auto;html=1;exitX=0.5;exitY=0;exitDx=0;exitDy=0;entryX=0.5;entryY=1;entryDx=0;entryDy=0;entryPerimeter=0;" edge="1" parent="1" source="3AVylNJSje92Rf9lsjq2-4" target="3AVylNJSje92Rf9lsjq2-3">
          <mxGeometry relative="1" as="geometry" />
        </mxCell>
        <mxCell id="3AVylNJSje92Rf9lsjq2-18" style="edgeStyle=orthogonalEdgeStyle;rounded=0;orthogonalLoop=1;jettySize=auto;html=1;exitX=1;exitY=0.75;exitDx=0;exitDy=0;entryX=1;entryY=0.25;entryDx=0;entryDy=0;dashed=1;" edge="1" parent="1" source="3AVylNJSje92Rf9lsjq2-12" target="3AVylNJSje92Rf9lsjq2-4">
          <mxGeometry relative="1" as="geometry">
            <Array as="points">
              <mxPoint x="890" y="625" />
              <mxPoint x="890" y="325" />
            </Array>
          </mxGeometry>
        </mxCell>
        <mxCell id="3AVylNJSje92Rf9lsjq2-12" value="Stripe" style="rounded=0;whiteSpace=wrap;html=1;" vertex="1" parent="1">
          <mxGeometry x="730" y="580" width="120" height="60" as="geometry" />
        </mxCell>
        <mxCell id="3AVylNJSje92Rf9lsjq2-16" style="edgeStyle=orthogonalEdgeStyle;rounded=0;orthogonalLoop=1;jettySize=auto;html=1;exitX=1;exitY=0.5;exitDx=0;exitDy=0;entryX=0;entryY=0.5;entryDx=0;entryDy=0;" edge="1" parent="1" source="3AVylNJSje92Rf9lsjq2-14" target="3AVylNJSje92Rf9lsjq2-4">
          <mxGeometry relative="1" as="geometry" />
        </mxCell>
        <mxCell id="3AVylNJSje92Rf9lsjq2-14" value="Auth" style="whiteSpace=wrap;html=1;align=center;" vertex="1" parent="1">
          <mxGeometry x="580" y="315" width="100" height="40" as="geometry" />
        </mxCell>
        <mxCell id="3AVylNJSje92Rf9lsjq2-20" style="edgeStyle=orthogonalEdgeStyle;rounded=0;orthogonalLoop=1;jettySize=auto;html=1;exitX=0.98;exitY=0.51;exitDx=0;exitDy=0;exitPerimeter=0;entryX=0;entryY=0.5;entryDx=0;entryDy=0;" edge="1" parent="1" source="3AVylNJSje92Rf9lsjq2-19" target="3AVylNJSje92Rf9lsjq2-6">
          <mxGeometry relative="1" as="geometry" />
        </mxCell>
        <mxCell id="3AVylNJSje92Rf9lsjq2-19" value="" style="points=[[0.35,0,0],[0.98,0.51,0],[1,0.71,0],[0.67,1,0],[0,0.795,0],[0,0.65,0]];verticalLabelPosition=bottom;sketch=0;html=1;verticalAlign=top;aspect=fixed;align=center;pointerEvents=1;shape=mxgraph.cisco19.user;fillColor=#005073;strokeColor=none;" vertex="1" parent="1">
          <mxGeometry x="50" y="310" width="50" height="50" as="geometry" />
        </mxCell>
      </root>
    </mxGraphModel>
  </diagram>
</mxfile>
